<svg width="95" height="91" viewBox="0 0 95 91" fill="none" xmlns="http://www.w3.org/2000/svg">
<path d="M81.0969 14.0033C72.1969 5.58899 60.3633 0.9552 47.777 0.9552C35.1906 0.9552 23.357 5.58899 14.457 14.0033C5.55705 22.4176 0.655518 33.6051 0.655518 45.5048C0.655518 54.9127 3.69264 63.843 9.45556 71.4312L0.717353 90.286L22.5697 83.1503C30.1064 87.6717 38.7914 90.0543 47.777 90.0543C60.3633 90.0543 72.1969 85.4205 81.0969 77.0062C89.9969 68.5919 94.8984 57.4045 94.8984 45.5048C94.8984 33.6058 89.9969 22.4176 81.0969 14.0033Z" fill="#51C3FA"/>
<path d="M94.8985 45.5049C94.8985 33.6052 89.9969 22.4177 81.0969 14.0034C72.2185 5.61022 60.4216 0.979156 47.8698 0.956665V90.0537C60.4216 90.0313 72.2185 85.4002 81.0969 77.0063C89.9969 68.592 94.8985 57.4046 94.8985 45.5049Z" fill="#51C3FA"/>
<path d="M75.5684 60.8091C71.2629 66.8278 71.2629 66.8278 71.1666 66.9389C68.7716 69.7032 65.0319 71.1324 60.3655 71.1324C58.6284 71.1324 56.7633 70.9348 54.7903 70.5333C48.1588 69.1866 40.9197 65.6671 34.4055 60.6231C27.8919 55.5783 22.8156 49.5617 20.1128 43.6807C17.1491 37.2306 17.3281 31.5867 20.6183 27.7892C20.7139 27.6801 20.7139 27.6801 26.3374 22.2639L28.585 20.0994L41.0017 35.7073L36.6186 40.7671C38.7541 43.5655 41.2778 46.5499 44.4616 49.0158C47.6454 51.4816 51.2376 53.2324 54.5602 54.6609L58.9764 49.5644L77.3228 58.3569L75.5684 60.8091Z" fill="white"/>
<path d="M58.9764 49.5642L54.5609 54.6608C52.3823 53.7243 50.0886 52.6475 47.8698 51.3233V68.432C50.2116 69.3664 52.5362 70.0758 54.7903 70.5332C56.7633 70.9346 58.6284 71.1322 60.3655 71.1322C65.032 71.1322 68.7716 69.703 71.1666 66.9387C71.2637 66.8276 71.2637 66.8276 75.5684 60.8089L77.3228 58.3568L58.9764 49.5642Z" fill="#DEECF1"/>
</svg>
